<svg width="139" height="131" viewBox="0 0 139 131" fill="none" xmlns="http://www.w3.org/2000/svg">
<path d="M69.5 65.5002C63.1292 65.5002 57.6754 63.3623 53.1385 59.0866C48.6017 54.8109 46.3333 49.671 46.3333 43.6668C46.3333 37.6627 48.6017 32.5227 53.1385 28.247C57.6754 23.9713 63.1292 21.8335 69.5 21.8335C75.8708 21.8335 81.3247 23.9713 85.8615 28.247C90.3983 32.5227 92.6667 37.6627 92.6667 43.6668C92.6667 49.671 90.3983 54.8109 85.8615 59.0866C81.3247 63.3623 75.8708 65.5002 69.5 65.5002ZM23.1667 109.167V93.8835C23.1667 90.7904 24.0113 87.9476 25.7005 85.3548C27.3898 82.7621 29.634 80.7835 32.4333 79.4189C38.4181 76.5988 44.4993 74.4837 50.6771 73.0736C56.8549 71.6635 63.1292 70.9585 69.5 70.9585C75.8708 70.9585 82.1451 71.6635 88.3229 73.0736C94.5007 74.4837 100.582 76.5988 106.567 79.4189C109.366 80.7835 111.61 82.7621 113.299 85.3548C114.989 87.9476 115.833 90.7904 115.833 93.8835V109.167H23.1667ZM34.75 98.2502H104.25V93.8835C104.25 92.8828 103.985 91.9731 103.454 91.1543C102.923 90.3356 102.223 89.6988 101.354 89.2439C96.1417 86.7877 90.8809 84.9455 85.5719 83.7173C80.2629 82.4892 74.9056 81.8752 69.5 81.8752C64.0945 81.8752 58.7372 82.4892 53.4281 83.7173C48.1191 84.9455 42.8583 86.7877 37.6458 89.2439C36.7771 89.6988 36.0773 90.3356 35.5464 91.1543C35.0155 91.9731 34.75 92.8828 34.75 93.8835V98.2502ZM69.5 54.5835C72.6854 54.5835 75.4123 53.5146 77.6807 51.3767C79.9491 49.2389 81.0833 46.6689 81.0833 43.6668C81.0833 40.6647 79.9491 38.0948 77.6807 35.9569C75.4123 33.8191 72.6854 32.7502 69.5 32.7502C66.3146 32.7502 63.5877 33.8191 61.3193 35.9569C59.0509 38.0948 57.9167 40.6647 57.9167 43.6668C57.9167 46.6689 59.0509 49.2389 61.3193 51.3767C63.5877 53.5146 66.3146 54.5835 69.5 54.5835Z" fill="#1D1B20"/>
</svg>
